<svg width="512" height="512" viewBox="0 0 512 512" xmlns="http://www.w3.org/2000/svg" role="img" aria-label="Astitva logo">
  <defs>
    <linearGradient id="ringGradient" x1="0%" y1="0%" x2="100%" y2="100%">
      <stop offset="0%" stop-color="#6d5efc"/>
      <stop offset="50%" stop-color="#b764ff"/>
      <stop offset="100%" stop-color="#ff5fb7"/>
    </linearGradient>
    <linearGradient id="accentGradient" x1="0%" y1="0%" x2="100%" y2="100%">
      <stop offset="0%" stop-color="#2ec5ff"/>
      <stop offset="100%" stop-color="#ff5fb7"/>
    </linearGradient>
    <filter id="softGlow" x="-50%" y="-50%" width="200%" height="200%">
      <feGaussianBlur stdDeviation="6" result="blur"/>
      <feMerge>
        <feMergeNode in="blur"/>
        <feMergeNode in="SourceGraphic"/>
      </feMerge>
    </filter>
  </defs>

  <circle cx="256" cy="256" r="236" fill="white"/>
  <circle cx="256" cy="256" r="226" fill="none" stroke="#d4af37" stroke-width="6"/>
  <circle cx="256" cy="228" r="130" fill="none" stroke="url(#ringGradient)" stroke-width="16" opacity="0.95" filter="url(#softGlow)"/>

  <g fill="none" stroke="#c9a03f" stroke-width="12" stroke-linecap="round" stroke-linejoin="round">
    <path d="M180 284c-34 0-62-28-62-62s28-62 62-62c31 0 56 22 61 51" />
    <path d="M332 284c34 0 62-28 62-62s-28-62-62-62c-31 0-56 22-61 51" />
    <path d="M180 284h152" />
  </g>

  <g stroke="url(#accentGradient)" stroke-width="12" stroke-linecap="round" stroke-linejoin="round" fill="none">
    <circle cx="256" cy="224" r="44"/>
    <path d="M256 268v82"/>
    <path d="M230 330h52"/>
    <path d="M256 180v-34"/>
    <path d="M256 146l-15 15"/>
    <path d="M256 146l15 15"/>
    <path d="M220 188l-23-23"/>
    <path d="M197 165v24"/>
    <path d="M197 165h24"/>
    <path d="M292 188l23-23"/>
    <path d="M315 165v24"/>
    <path d="M315 165h-24"/>
  </g>

  <text x="256" y="412" text-anchor="middle" font-family="Arial, Helvetica, sans-serif" font-size="66" font-weight="700" letter-spacing="2" fill="#6f54c8">ASTITVA</text>
</svg>
